<svg fill="none" height="32" viewBox="0 0 32 32" width="32" xmlns="http://www.w3.org/2000/svg"><path d="m16.6279 25.4326c.0386.0075.0789.0117.1182.0117h4.3057c.0431 0 .0866-.0046.1289-.0136l9.9902-2.1582v5.4072l-10.1992 2.707h-4.167l-15.8047-3.084.05469-5.9091zm13.2842-9.2129v2.2744c0 .6209.3443 1.1912.8936 1.4805l.3652.1924v1.7187l-2.7617.5957h.0019l-7.4257 1.6045h-4.1807l-3.7529-.7275v-2.1719h.0009v-.1719c.9368.2839 1.9276.4297 2.9668.4297.9753 0 1.9322-.1441 2.8614-.4336l.3427-.1132c.7935-.2788 1.5475-.6565 2.2598-1.126l.207-.1543c.46-.3836.7551-.9344.8155-1.5371.0058-.0581.0064-.1169.0078-.1748.5602-.0204 1.1143-.2414 1.542-.669l1.167-1.1679 1.8632-.4024zm-18.0859 7.0274-4.38968-.8565 4.38968-.9414zm-4.87893-7.5283c.48942 1.0482 1.18011 2.0113 2.0664 2.8759.71298.6955 1.48713 1.2652 2.31543 1.708l-6.64648 1.4258-3.6211-.7139v-1.3994l.1084-.0439.04981-.0205c.5062-.2254.83493-.7287.83496-1.2862v-1.4853zm13.27053 2.1328c-.6408.4223-1.3146.743-2.0205.9629-.7061.2199-1.4325.33-2.1778.33l-.3896-.0088c-.8417-.0373-1.633-.1981-2.375-.4795l6.3838-1.3798zm-8.3936-3.1885c.15.1928.3161.3794.499.5586l.1924.1806c.9132.817 1.992 1.2522 3.2354 1.3067l.2685.0058c.1938 0 .3855-.0133.5752-.0351l-4.2851.9277c-.1955.0424-.352.1757-.4297.3496-.4405-.2854-.8614-.6202-1.2598-1.0088-.55-.5365-.99924-1.1141-1.34764-1.7324zm6.7764 1.583-1.0606.2285c.306-.0989.6071-.2263.9014-.3867zm-1.2852-2.4854.2158.2149c-.007.003-.0144.0057-.0214.0088l-.17.084c-.1699.0926-.3354.1638-.497.2168l-.1602.0468c-.212.0549-.4317.083-.6631.083-.5542 0-1.0201-.1162-1.4375-.3496l2.0371-.4404z" fill="#f5f5f5"/><path d="m16.0199 19.1443c-2.099 0-3.8989-.732-5.3998-2.1961s-2.25134-3.2326-2.25134-5.3056v-.1735l-1.27234 1.2723-1.41281-1.4256 3.89973-3.91283 3.89976 3.91283-1.4128 1.4256-1.2724-1.2723v.1345c0 1.4155.5083 2.6213 1.5249 3.6174 1.0167.9959 2.2491 1.4939 3.6971 1.4939.4232 0 .8366-.0522 1.2401-.1567.4035-.1047.7972-.2617 1.1811-.471l1.7765 1.7637c-.6409.4224-1.3144.7436-2.0206.9634-.7061.22-1.4318.33-2.1771.33zm6.4098-3.5342-3.9128-3.8999 1.4257-1.4257 1.2723 1.2723v-.1345c0-1.4155-.5104-2.62126-1.5313-3.61737-1.021-.99596-2.2555-1.49394-3.7035-1.49394-.4232 0-.8366.05225-1.2401.15675-.4034.10465-.7971.26163-1.1811.47094l-1.7636-1.77673c.641-.42243 1.3124-.74143 2.0141-.957.7019-.21557 1.4254-.32336 2.1707-.32336 2.099 0 3.9011.73204 5.4062 2.19611 1.5054 1.46407 2.258 3.23262 2.258 5.3057v.1734l1.2593-1.2723 1.4259 1.4257z" fill="#68b688"/><path d="m16.6279 25.4326c.0386.0075.0789.0117.1182.0117h4.3057c.0431 0 .0866-.0046.1289-.0136l9.9902-2.1582v5.4072l-10.1992 2.707h-4.167l-15.8047-3.084.05469-5.9091zm13.2842-9.2129v2.2744c0 .6209.3443 1.1912.8936 1.4805l.3652.1924v1.7187l-2.7617.5957h.0019l-7.4257 1.6045h-4.1807l-3.7529-.7275v-2.1719h.0009v-2.4853l14.0332-3.0352zm-18.0859 7.0274-4.38968-.8565 4.38968-.9414z" fill="#f5f5f5"/></svg>