<svg fill="none" height="32" viewBox="0 0 32 32" width="32" xmlns="http://www.w3.org/2000/svg" xmlns:xlink="http://www.w3.org/1999/xlink"><clipPath id="a"><path d="m0 0h32v32h-32z"/></clipPath><clipPath id="b"><path d="m0 0h32v32h-32z"/></clipPath><g clip-path="url(#a)"><g clip-path="url(#b)" clip-rule="evenodd" fill-rule="evenodd"><path d="m27.6364 0c2.4099 0 4.3636 1.95367 4.3636 4.36364v23.27276c0 2.4099-1.9537 4.3636-4.3636 4.3636h-23.27276c-2.40997 0-4.36364-1.9537-4.36364-4.3636v-23.27276c0-2.40997 1.95367-4.36364 4.36364-4.36364z" fill="#68b688"/><g fill="#fff"><path d="m27.6364 20.3636c.8033 0 1.4545.6513 1.4545 1.4546v5.8182c0 .7897-.6293 1.4324-1.4138 1.4539l-.0407.0006h-11.6364c-.8033 0-1.4546-.6512-1.4546-1.4545 0-.8034.6513-1.4546 1.4546-1.4546h9.6c.3213 0 .5818-.2605.5818-.5818v-3.7818c0-.8033.6512-1.4546 1.4546-1.4546z"/><path d="m4.36363 14.5454c.80333 0 1.45455.6513 1.45455 1.4546v9.6c0 .3213.26049.5818.58182.5818h3.7818c.8033 0 1.4546.6512 1.4546 1.4546 0 .8033-.6513 1.4545-1.4546 1.4545h-5.81817c-.80332 0-1.45454-.6512-1.45454-1.4545v-11.6364c0-.8033.65122-1.4546 1.45454-1.4546z"/><path d="m16 8.72727c.8033 0 1.4545.65122 1.4545 1.45453v11.6364c0 .8033-.6512 1.4545-1.4545 1.4545s-1.4546-.6512-1.4546-1.4545v-11.6364c0-.80331.6513-1.45453 1.4546-1.45453z"/><path d="m10.1818 14.5454c.8033 0 1.4546.6513 1.4546 1.4546v5.8182c0 .8033-.6513 1.4545-1.4546 1.4545-.80331 0-1.45453-.6512-1.45453-1.4545v-5.8182c0-.8033.65122-1.4546 1.45453-1.4546z"/><path d="m21.8182 8.72727c.8033 0 1.4545.65122 1.4545 1.45453v5.8182c0 .8033-.6512 1.4545-1.4545 1.4545s-1.4546-.6512-1.4546-1.4545v-5.8182c0-.80331.6513-1.45453 1.4546-1.45453z"/><path d="m27.6364 2.90909c.8033 0 1.4545.65122 1.4545 1.45454v11.63637c0 .8033-.6512 1.4545-1.4545 1.4545-.8034 0-1.4546-.6512-1.4546-1.4545v-9.6c0-.32133-.2605-.58182-.5818-.58182h-3.7818c-.8033 0-1.4546-.65122-1.4546-1.45455 0-.80332.6513-1.45454 1.4546-1.45454z"/><path d="m16 2.90909c.8033 0 1.4545.65122 1.4545 1.45454 0 .80333-.6512 1.45455-1.4545 1.45455h-9.6c-.32133 0-.58182.26049-.58182.58182v3.7818c0 .8033-.65122 1.4546-1.45455 1.4546-.80332 0-1.45454-.6513-1.45454-1.4546v-5.81817c0-.7897.62933-1.43242 1.41383-1.45398l.04071-.00056z"/></g></g></g></svg>