<svg fill="none" height="32" viewBox="0 0 32 32" width="32" xmlns="http://www.w3.org/2000/svg"><path d="m28 15.8486c-.306-1.0348-1.2625-1.79-2.3965-1.79h-2.208c-1.3806.0002-2.5 1.1194-2.5 2.5v5.8418h-1.0986c-2.5432.0003-3.7238 3.1563-1.8047 4.8252l.8906.7744h-14.8828v-24h24zm-2.3965.21c.2417 0 .4437.1715.4903.3994l.0097.1006v7.8418h1.8965v2.7891l-.9316.8105h-5.1368l-2.6269-2.2842-.0879-.0898c-.3933-.4696-.07-1.2254.5801-1.2256h3.0986v-7.8418l.0098-.1006c.0465-.2279.2486-.3993.4902-.3994z" fill="#fff"/><path d="m26.1816 2c2.1088 0 3.8184 1.70964 3.8184 3.81836v16.69434c-.2474-.0721-.5141-.1123-.7979-.1123h-1.0986v-5.8418c0-.6464-.2468-1.234-.6494-1.6777v-9.06254c0-.70291-.5696-1.27246-1.2725-1.27246h-5.0908c-.7028.00005-1.2724.56958-1.2724 1.27246.0001.7028.5696 1.27241 1.2724 1.27246h3.3096c.2808.00021.5086.22794.5088.50879v6.45899h-1.5137c-.3684 0-.7173.0815-1.0322.2246v-3.374c0-.7029-.5696-1.27248-1.2725-1.27248-.7028.00005-1.2724.56958-1.2724 1.27248v5.0908c0 .6364.4671 1.1617 1.0771 1.2559v5.1445h-1.0986c-1.5671.0002-2.6154 1.1984-2.7412 2.5088h-1.0557c-.7028 0-1.2724.5696-1.2725 1.2724 0 .7029.5696 1.2725 1.2725 1.2725h2.2549l2.9287 2.5459h-15.36524c-2.10872 0-3.81836-1.7096-3.81836-3.8184v-20.36324c0-2.10872 1.70964-3.81836 3.81836-3.81836zm3.0205 22.4004c.6937 0 1.0157.8602.4922 1.3154l-4.7021 4.0899-.1123.08c-.2732.1609-.6253.1345-.8721-.08l-2.7041-2.3516h4.9141c.6863-.019 1.2363-.5816 1.2363-1.2725v-1.7812zm-23.38374-9.6729c-.70291 0-1.27246.5696-1.27246 1.2725v10.1816c0 .7029.56955 1.2725 1.27246 1.2725h5.09084c.7028 0 1.2724-.5696 1.2724-1.2725-.0001-.7028-.5696-1.2724-1.2724-1.2724h-3.30959c-.28085-.0002-.50858-.228-.50879-.5088v-8.4004c0-.7028-.56963-1.2724-1.27246-1.2725zm19.09374 1.3311c.0295.6496.5444 1.1706 1.1914 1.21v2.5537c-.6663.0405-1.1943.592-1.1943 1.2685v3.3096c-.0002.2808-.228.5086-.5088.5088h-5.3115c.096-.282.3522-.5087.708-.5088h3.0986v-7.8418l.0098-.1006c.0465-.2279.2486-.3993.4902-.3994zm-14.0029-1.3311c-.7029 0-1.27248.5696-1.27248 1.2725v5.0908c0 .7029.56958 1.2725 1.27248 1.2725.7028-.0001 1.2724-.5696 1.2724-1.2725v-5.0908c0-.7029-.5696-1.2724-1.2724-1.2725zm5.0908-5.09078c-.7029 0-1.2725.56958-1.2725 1.27248v10.1816c0 .7029.5696 1.2725 1.2725 1.2725s1.2725-.5696 1.2725-1.2725v-10.1816c0-.7029-.5696-1.27248-1.2725-1.27248zm-10.21777-5.09082c-.68629.01903-1.23633.58158-1.23633 1.27246v5.09084c.00005.7028.56958 1.2724 1.27246 1.2724.7028-.0001 1.27241-.5696 1.27246-1.2724v-3.30959c.00021-.28085.22794-.50858.50879-.50879h8.40039c.7028 0 1.2724-.56963 1.2725-1.27246 0-.70291-.5696-1.27246-1.2725-1.27246z" fill="#68b688"/><path d="m24.9921 29.8054c-.2822.2454-.702.2454-.9842 0l-4.7029-4.0894c-.5234-.4552-.2015-1.316.4922-1.316h3.0986v-7.8417c0-.2761.2239-.5.5-.5h2.2084c.2761 0 .5.2239.5.5v7.8417h3.0987c.6936 0 1.0155.8608.4921 1.316z" fill="#fff"/></svg>