<svg fill="none" height="32" viewBox="0 0 32 32" width="32" xmlns="http://www.w3.org/2000/svg" xmlns:xlink="http://www.w3.org/1999/xlink"><clipPath id="a"><path d="m2 2h28v28h-28z"/></clipPath><g clip-path="url(#a)" clip-rule="evenodd" fill-rule="evenodd"><path d="m26.1818 2c2.1087 0 3.8182 1.70946 3.8182 3.81818v20.36362c0 2.1087-1.7095 3.8182-3.8182 3.8182h-20.36362c-2.10872 0-3.81818-1.7095-3.81818-3.8182v-20.36362c0-2.10872 1.70946-3.81818 3.81818-3.81818z" fill="#68b688"/><g fill="#fff"><path d="m26.1818 19.8182c.7029 0 1.2728.5698 1.2728 1.2727v5.0909c0 .691-.5507 1.2534-1.2372 1.2723l-.0356.0004h-10.1818c-.7029 0-1.2727-.5698-1.2727-1.2727s.5698-1.2727 1.2727-1.2727h8.4c.2812 0 .5091-.2279.5091-.5091v-3.3091c0-.7029.5698-1.2727 1.2727-1.2727z"/><path d="m5.81818 14.7273c.70291 0 1.27273.5698 1.27273 1.2727v8.4c0 .2812.22793.5091.50909.5091h3.3091c.7029 0 1.2727.5698 1.2727 1.2727s-.5698 1.2728-1.2727 1.2728h-5.09092c-.7029 0-1.27272-.5699-1.27272-1.2728v-10.1818c0-.7029.56982-1.2727 1.27272-1.2727z"/><path d="m16 9.63637c.7029 0 1.2727.56983 1.2727 1.27273v10.1818c0 .7029-.5698 1.2727-1.2727 1.2727s-1.2727-.5698-1.2727-1.2727v-10.1818c0-.7029.5698-1.27273 1.2727-1.27273z"/><path d="m10.9091 14.7273c.7029 0 1.2727.5698 1.2727 1.2727v5.0909c0 .7029-.5698 1.2727-1.2727 1.2727s-1.27273-.5698-1.27273-1.2727v-5.0909c0-.7029.56983-1.2727 1.27273-1.2727z"/><path d="m21.0909 9.63637c.7029 0 1.2727.56983 1.2727 1.27273v5.0909c0 .7029-.5698 1.2727-1.2727 1.2727s-1.2727-.5698-1.2727-1.2727v-5.0909c0-.7029.5698-1.27273 1.2727-1.27273z"/><path d="m26.1818 4.54546c.7029 0 1.2727.56982 1.2727 1.27272v10.18182c0 .7029-.5698 1.2727-1.2727 1.2727s-1.2727-.5698-1.2727-1.2727v-8.4c0-.28116-.2279-.50909-.5091-.50909h-3.3091c-.7029 0-1.2727-.56982-1.2727-1.27273 0-.7029.5698-1.27272 1.2727-1.27272z"/><path d="m16 4.54546c.7029 0 1.2727.56982 1.2727 1.27272 0 .70291-.5698 1.27273-1.2727 1.27273h-8.4c-.28116 0-.50909.22793-.50909.50909v3.3091c0 .7029-.56982 1.2727-1.27273 1.2727-.7029 0-1.27272-.5698-1.27272-1.2727v-5.09092c0-.69099.55066-1.25337 1.2371-1.27224l.03562-.00048z"/></g></g><path d="m29.2025 23.4001c1.5678 0 2.322 1.8844 1.2578 2.9678l-.1094.1025-4.7021 4.0899-.128.1006c-.609.4381-1.433.4382-2.042 0l-.1269-.1006-4.7031-4.0899c-1.2213-1.062-.4701-3.0703 1.1484-3.0703h2.0986v-6.8418c0-.8284.6716-1.5 1.5-1.5h2.208c.8285 0 1.5.6716 1.5 1.5v6.8418z" fill="#999" stroke="#fff" stroke-width="2"/></svg>