<svg fill="none" height="32" viewBox="0 0 32 32" width="32" xmlns="http://www.w3.org/2000/svg"><path d="m15.6792 29.0712-.236-3.7024-.3124-.0067c-2.7891-.0792-5.14496-1.1056-7.06763-3.0794-1.92267-1.9739-2.884-4.3576-2.884-7.1514 0-2.8494.99361-5.26568 2.98083-7.24881 1.9874-1.98314 4.4063-2.97471 7.2567-2.97471 1.4223 0 2.7512.26697 3.9865.80091 1.2355.53395 2.3192 1.26691 3.2512 2.19888.9321.93217 1.6651 2.0159 2.1989 3.25123.5339 1.2353.8009 2.5641.8009 3.9865 0 1.5281-.258 2.9874-.7738 4.3779-.5161 1.3905-1.2198 2.679-2.1111 3.8657-.8915 1.1869-1.9444 2.2609-3.1588 3.2221-1.2141.9613-2.5245 1.7814-3.9313 2.4602zm2.6541-4.7676c1.3806-1.1667 2.5035-2.5326 3.3688-4.0979s1.2979-3.2521 1.2979-5.0604c0-2.1195-.734-3.9132-2.2021-5.38127-1.468-1.46806-3.2618-2.20209-5.3812-2.20209-2.1195 0-3.9132.73403-5.3813 2.20209-1.46804 1.46807-2.20206 3.26177-2.20206 5.38127 0 2.1194.73402 3.9132 2.20206 5.3812 1.4681 1.4681 3.2618 2.2021 5.3813 2.2021h2.9166zm-2.9388-2.7011c.3584 0 .6624-.1248.912-.3742.2497-.2497.3745-.5537.3745-.9121 0-.3585-.1248-.6626-.3745-.9123-.2496-.2495-.5536-.3742-.912-.3742-.3586 0-.6626.1247-.912.3742-.2497.2497-.3745.5538-.3745.9123 0 .3584.1248.6624.3745.9121.2494.2494.5534.3742.912.3742zm-.9365-3.7669h1.9174c0-.588.0618-1.0056.1855-1.2527.1236-.2473.4826-.6682 1.0768-1.2626.3593-.3594.6568-.7432.8925-1.1515.2357-.4084.3535-.8551.3535-1.3402 0-1.022-.3377-1.7884-1.0132-2.2992-.6755-.511-1.4888-.76654-2.4398-.76654-.8743 0-1.6156.25174-2.224.75514-.6086.5036-1.0346 1.115-1.2781 1.8343l1.7938.7044c.1019-.3351.2854-.6665.5506-.9943.2653-.3279.6465-.4918 1.1437-.4918s.87.1371 1.1185.4113c.2485.2741.3728.5758.3728.905 0 .3119-.0984.5979-.2952.8581s-.4196.5148-.6685.7639c-.6852.5926-1.1043 1.0683-1.2571 1.4271-.1528.3589-.2292.9921-.2292 1.8996z" fill="#f5f5f5"/></svg>