<svg fill="none" height="32" viewBox="0 0 32 32" width="32" xmlns="http://www.w3.org/2000/svg" xmlns:xlink="http://www.w3.org/1999/xlink"><clipPath id="a"><path d="m0 0h32v32h-32z"/></clipPath><g clip-path="url(#a)"><path d="m28 18.252c-.6392-.1646-1.3094-.252-2-.252-4.4183 0-8 3.5817-8 8 0 .6906.0874 1.3608.252 2h-14.252v-24h24z" fill="#fff"/><path d="m26.1816 2c2.1088 0 3.8184 1.70964 3.8184 3.81836v13.25394c-1.1769-.681-2.5425-1.0723-4-1.0723-4.0482 0-7.3927 3.007-7.9248 6.9092h-2.0752c-.7028 0-1.2724.5696-1.2725 1.2724 0 .7029.5696 1.2725 1.2725 1.2725h2.1338c.1676.9125.4904 1.77.9394 2.5459h-13.25484c-2.10872 0-3.81836-1.7096-3.81836-3.8184v-20.36324c0-2.10872 1.70964-3.81836 3.81836-3.81836zm-20.36324 12.7275c-.70291 0-1.27246.5696-1.27246 1.2725v10.1816c0 .7029.56955 1.2725 1.27246 1.2725h5.09084c.7028 0 1.2724-.5696 1.2724-1.2725-.0001-.7028-.5696-1.2724-1.2724-1.2724h-3.30959c-.28085-.0002-.50858-.228-.50879-.5088v-8.4004c0-.7028-.56963-1.2724-1.27246-1.2725zm5.09084 0c-.7029 0-1.27248.5696-1.27248 1.2725v5.0908c0 .7029.56958 1.2725 1.27248 1.2725.7028-.0001 1.2724-.5696 1.2724-1.2725v-5.0908c0-.7029-.5696-1.2724-1.2724-1.2725zm5.0908-5.09078c-.7029 0-1.2725.56958-1.2725 1.27248v10.1816c0 .7029.5696 1.2725 1.2725 1.2725s1.2725-.5696 1.2725-1.2725v-10.1816c0-.7029-.5696-1.27248-1.2725-1.27248zm5.0908 0c-.7028.00005-1.2724.56958-1.2724 1.27248v5.0908c0 .7029.5696 1.2724 1.2724 1.2725.7029 0 1.2725-.5696 1.2725-1.2725v-5.0908c0-.7029-.5696-1.27248-1.2725-1.27248zm0-5.09082c-.7028.00005-1.2724.56958-1.2724 1.27246.0001.7028.5696 1.27241 1.2724 1.27246h3.3096c.2808.00021.5086.22794.5088.50879v8.40039c0 .7028.5696 1.2724 1.2724 1.2725.7029 0 1.2725-.5696 1.2725-1.2725v-10.18164c0-.70291-.5696-1.27246-1.2725-1.27246zm-15.30857 0c-.68629.01903-1.23633.58158-1.23633 1.27246v5.09084c.00005.7028.56958 1.2724 1.27246 1.2724.7028-.0001 1.27241-.5696 1.27246-1.2724v-3.30959c.00021-.28085.22794-.50858.50879-.50879h8.40039c.7028 0 1.2724-.56963 1.2725-1.27246 0-.70291-.5696-1.27246-1.2725-1.27246z" fill="#68b688"/><path d="m26 20c3.3137 0 6 2.6863 6 6s-2.6863 6-6 6-6-2.6863-6-6 2.6863-6 6-6zm1.125 2.25-4.5 4.3125 3 .375-1.5 2.8125h.75l4.5-4.3125-3-.375 1.5-2.8125z" fill="#fff"/></g></svg>