<svg fill="none" height="32" viewBox="0 0 32 32" width="32" xmlns="http://www.w3.org/2000/svg" xmlns:xlink="http://www.w3.org/1999/xlink"><clipPath id="a"><path d="m0 0h32v32h-32z"/></clipPath><g clip-path="url(#a)"><path d="m28 16.4873c-.399-.2696-.8797-.4277-1.3975-.4277h-2.208c-1.3805 0-2.4997 1.1195-2.5 2.5v5.8418h-1.0986c-2.0006 0-3.1571 1.9528-2.626 3.5986h-14.1699v-24h24zm-1.3975 1.5723c.2415.0001.4436.1717.4903.3994l.0097.1006v7.8418h.8975v1.5986h-7.3711l-.3252-.2832-.0879-.0898c-.3932-.4697-.0701-1.2256.5801-1.2256h3.0986v-7.8418l.0098-.1006c.0467-.2278.2487-.3994.4902-.3994z" fill="#fff"/><path d="m27.1025 20.2139c-.2318-.2433-.5583-.3955-.9209-.3955-.7028.0001-1.2724.5696-1.2724 1.2724v3.3096c-.0002.2808-.228.5086-.5088.5088h-.5059v-6.3496l.0098-.1006c.0467-.2278.2487-.3994.4902-.3994h2.208c.2415.0001.4436.1717.4903.3994l.0097.1006zm2.8907 6.1875c-.1138 2.0065-1.7765 3.5986-3.8116 3.5986h-3.2519l-2.626-2.2832-.0879-.0898c-.0454-.0543-.0805-.1126-.1074-.1729h6.1094c.6118-.017 1.1147-.466 1.2168-1.0527zm-24.17484-11.6739c-.70291 0-1.27246.5696-1.27246 1.2725v10.1816c0 .7029.56955 1.2725 1.27246 1.2725h5.09084c.7028 0 1.2724-.5696 1.2724-1.2725-.0001-.7028-.5696-1.2724-1.2724-1.2724h-3.30959c-.28085-.0002-.50858-.228-.50879-.5088v-8.4004c0-.7028-.56963-1.2724-1.27246-1.2725zm5.09084 0c-.7029 0-1.27248.5696-1.27248 1.2725v5.0908c0 .7029.56958 1.2725 1.27248 1.2725.7028-.0001 1.2724-.5696 1.2724-1.2725v-5.0908c0-.7029-.5696-1.2724-1.2724-1.2725zm5.0908-5.09078c-.7029 0-1.2725.56958-1.2725 1.27248v10.1816c0 .7029.5696 1.2725 1.2725 1.2725s1.2725-.5696 1.2725-1.2725v-10.1816c0-.7029-.5696-1.27248-1.2725-1.27248zm5.0908 0c-.7028.00005-1.2724.56958-1.2724 1.27248v5.0908c0 .7029.5696 1.2724 1.2724 1.2725.7029 0 1.2725-.5696 1.2725-1.2725v-5.0908c0-.7029-.5696-1.27248-1.2725-1.27248zm-15.30857-5.09082c-.68629.01903-1.23633.58158-1.23633 1.27246v5.09084c.00005.7028.56958 1.2724 1.27246 1.2724.7028-.0001 1.27241-.5696 1.27246-1.2724v-3.30959c.00021-.28085.22794-.50858.50879-.50879h8.40039c.7028 0 1.2724-.56963 1.2725-1.27246 0-.70291-.5696-1.27246-1.2725-1.27246zm23.32027 14.0137c-.0001-1.0879-.6967-2.0101-1.667-2.3535.011-.0672.0186-.1358.0186-.2061v-10.18164c0-.70291-.5696-1.27246-1.2725-1.27246h-5.0908c-.7028.00005-1.2724.56958-1.2724 1.27246.0001.7028.5696 1.27241 1.2724 1.27246h3.3096c.2808.00021.5086.22794.5088.50879v8.40039c0 .02.002.0398.0029.0596h-.5176c-1.3805 0-2.4997 1.1195-2.5 2.5v5.8418h-1.0986c-.6276 0-1.1719.1932-1.6074.5078h-3.1885c-.7028 0-1.2724.5696-1.2725 1.2724 0 .7029.5696 1.2725 1.2725 1.2725h2.0557c.0658.6411.3614 1.2732.9355 1.7725l.8897.7734h-14.06254c-2.10872 0-3.81836-1.7096-3.81836-3.8184v-20.36324c0-2.10872 1.70964-3.81836 3.81836-3.81836h20.36324c2.1088 0 3.8184 1.70964 3.8184 3.81836v18.58304h-.8975z" fill="#68b688"/><path d="m25.9921 31.8054c-.2822.2454-.702.2454-.9842 0l-4.7029-4.0894c-.5234-.4552-.2015-1.316.4921-1.316h3.0987v-7.8417c0-.2761.2239-.5.5-.5h2.2084c.2761 0 .5.2239.5.5v7.8417h3.0987c.6936 0 1.0155.8608.4921 1.316z" fill="#fff"/></g></svg>