<svg fill="none" height="32" viewBox="0 0 32 32" width="32" xmlns="http://www.w3.org/2000/svg" xmlns:xlink="http://www.w3.org/1999/xlink"><clipPath id="a"><path d="m0 0h32v32h-32z"/></clipPath><g clip-path="url(#a)"><path d="m28 16.4844c-.3987-.269-.8793-.4258-1.3965-.4258h-2.208c-1.3806.0002-2.5 1.1194-2.5 2.5v5.8418h-1.0986c-2.0009.0002-3.158 1.9537-2.626 3.5996h-14.1709v-24h24z" fill="#fff"/><path d="m26.1816 2c2.1088 0 3.8184 1.70964 3.8184 3.81836v18.58204h-.8965v-5.8418c0-1.0884-.6962-2.0122-1.667-2.3555.0107-.0662.0176-.1339.0176-.2031v-10.18164c0-.70291-.5696-1.27246-1.2725-1.27246h-5.0908c-.7028.00005-1.2724.56958-1.2724 1.27246.0001.7028.5696 1.27241 1.2724 1.27246h3.3096c.2808.00021.5086.22794.5088.50879v8.40039c0 .0197.002.0391.0029.0586h-.5166c-1.3806.0002-2.5 1.1194-2.5 2.5v5.8418h-1.0986c-.6286.0001-1.1735.1933-1.6094.5088h-3.1875c-.7028 0-1.2724.5696-1.2725 1.2724 0 .7029.5696 1.2725 1.2725 1.2725h2.0576c.0661.6406.3609 1.2726.9346 1.7715l.8906.7744h-14.06444c-2.10872 0-3.81836-1.7096-3.81836-3.8184v-20.36324c0-2.10872 1.70964-3.81836 3.81836-3.81836zm-20.36324 12.7275c-.70291 0-1.27246.5696-1.27246 1.2725v10.1816c0 .7029.56955 1.2725 1.27246 1.2725h5.09084c.7028 0 1.2724-.5696 1.2724-1.2725-.0001-.7028-.5696-1.2724-1.2724-1.2724h-3.30959c-.28085-.0002-.50858-.228-.50879-.5088v-8.4004c0-.7028-.56963-1.2724-1.27246-1.2725zm5.09084 0c-.7029 0-1.27248.5696-1.27248 1.2725v5.0908c0 .7029.56958 1.2725 1.27248 1.2725.7028-.0001 1.2724-.5696 1.2724-1.2725v-5.0908c0-.7029-.5696-1.2724-1.2724-1.2725zm5.0908-5.09078c-.7029 0-1.2725.56958-1.2725 1.27248v10.1816c0 .7029.5696 1.2725 1.2725 1.2725s1.2725-.5696 1.2725-1.2725v-10.1816c0-.7029-.5696-1.27248-1.2725-1.27248zm5.0908 0c-.7028.00005-1.2724.56958-1.2724 1.27248v5.0908c0 .7029.5696 1.2724 1.2724 1.2725.7029 0 1.2725-.5696 1.2725-1.2725v-5.0908c0-.7029-.5696-1.27248-1.2725-1.27248zm-15.30857-5.09082c-.68629.01903-1.23633.58158-1.23633 1.27246v5.09084c.00005.7028.56958 1.2724 1.27246 1.2724.7028-.0001 1.27241-.5696 1.27246-1.2724v-3.30959c.00021-.28085.22794-.50858.50879-.50879h8.40039c.7028 0 1.2724-.56963 1.2725-1.27246 0-.70291-.5696-1.27246-1.2725-1.27246z" fill="#68b688"/><path d="m25.9921 31.8054c-.2822.2454-.702.2454-.9842 0l-4.7029-4.0894c-.5234-.4552-.2015-1.316.4921-1.316h3.0987v-7.8417c0-.2761.2239-.5.5-.5h2.2084c.2761 0 .5.2239.5.5v7.8417h3.0987c.6936 0 1.0155.8608.4921 1.316z" fill="#999"/></g></svg>