<svg fill="none" height="32" viewBox="0 0 32 32" width="32" xmlns="http://www.w3.org/2000/svg"><path d="m5.5 24.1v-10.5l10.5-6.99999 10.5 6.49999v11.5l-10.5 6z" fill="#fff"/><path d="m14.6667 28.5v-9.1333l-8.00003-4.6334v9.1334zm2.6666 0 8-4.6333v-9.1334l-8 4.6334zm-1.3333-11.4333 7.9-4.5667-7.9-4.56666-7.9 4.56666zm-10.66667 9.1333c-.42222-.2444-.75-.5667-.98333-.9667s-.35-.8444-.35-1.3333v-10.6c0-.4889.11667-.9333.35-1.3333s.56111-.7222.98333-.9667l9.33337-5.36666c.4222-.24444.8666-.36666 1.3333-.36666s.9111.12222 1.3333.36666l9.3334 5.36666c.4222.2445.75.5667.9833.9667s.35.8444.35 1.3333v10.6c0 .4889-.1167.9333-.35 1.3333s-.5611.7223-.9833.9667l-9.3334 5.3667c-.4222.2444-.8666.3666-1.3333.3666s-.9111-.1222-1.3333-.3666z" fill="#999"/><path d="m10.3392 8.74982c-1.38734 0-2.03128-1.7215-.98439-2.63184l5.66109-4.92285c.5644-.490586 1.4045-.49072 1.9688 0l5.6611 4.92285c1.0466.91031.4027 2.6316-.9843 2.63184h-3.0782v5.83298l-.3769.2158-1.833 1.0518-.3731.2139-.373-.2139-1.834-1.0518-.377-.2158v-5.83298z" fill="#68b688" stroke="#fff" stroke-width="1.5"/><path d="m26.667 11.0004c.422.2444.7501.566.9834.9658.2333.4.3496.8451.3496 1.334v10.5996c0 .4889-.1163.934-.3496 1.334-.2333.3998-.5614.7214-.9834.9658l-9.334 5.3672c-.4221.2443-.8664.3662-1.333.3662s-.9109-.1219-1.333-.3662l-9.33399-5.3672c-.42197-.2444-.75015-.566-.9834-.9658-.23333-.4-.34961-.8451-.34961-1.334v-10.5996c0-.4889.11628-.934.34961-1.334.23325-.3998.56143-.7214.9834-.9658l.81445-.4688 2.48731 1.6582-.53516.3106 7.90039 4.5664 7.9004-4.5664-.7959-.4609 2.6934-1.5391zm-20.00001 12.8662 8.00001 4.6338v-9.1338l-8.00001-4.6328zm10.66601-4.5v9.1338l8-4.6338v-9.1328z" fill="#999"/></svg>