<svg fill="none" height="32" viewBox="0 0 32 32" width="32" xmlns="http://www.w3.org/2000/svg"><path d="m14.4082 21.212h2.424v-6.212h-2.424zm1.212-7.9295c.3634 0 .668-.1229.9138-.3688.2458-.2458.3687-.5504.3687-.9137s-.1229-.6679-.3687-.9137c-.2458-.2459-.5504-.3688-.9138-.3688-.3633 0-.6679.1229-.9137.3688-.2458.2458-.3688.5504-.3688.9137s.123.6679.3688.9137c.2458.2459.5504.3688.9137.3688zm0 13.198c-1.4586 0-2.8245-.2747-4.0977-.824-1.273-.5493-2.38034-1.2949-3.32201-2.2367-.94183-.9417-1.68742-2.049-2.23675-3.322-.54933-1.2732-.824-2.6391-.824-4.0978s.27467-2.8246.824-4.0977c.54933-1.273 1.29492-2.38038 2.23675-3.32205.94167-.94183 2.04901-1.68742 3.32201-2.23675 1.2732-.54933 2.6391-.824 4.0977-.824 1.4587 0 2.8246.27467 4.0978.824 1.273.54933 2.3803 1.29492 3.322 2.23675.9418.94167 1.6874 2.04905 2.2367 3.32205.5494 1.2731.824 2.639.824 4.0977s-.2746 2.8246-.824 4.0978c-.5493 1.273-1.2949 2.3803-2.2367 3.322-.9417.9418-2.049 1.6874-3.322 2.2367-1.2732.5493-2.6391.824-4.0978.824zm0-2.65c2.1957 0 4.0497-.7562 5.562-2.2685 1.5124-1.5123 2.2685-3.3663 2.2685-5.562s-.7561-4.0497-2.2685-5.562c-1.5123-1.51233-3.3663-2.2685-5.562-2.2685-2.1956 0-4.0496.75617-5.562 2.2685-1.51229 1.5123-2.26846 3.3663-2.26846 5.562s.75617 4.0497 2.26846 5.562c1.5124 1.5123 3.3664 2.2685 5.562 2.2685z" fill="#f5f5f5"/></svg>